# xmcd CD database file
#
# Track frame offsets:
#	150
#	18927
#	42818
#	57063
#	80502
#	99464
#	130223
#	140316
#	154144
#	177489
#	193264
#	212031
#
# Disc length: 3122 seconds
#
# Revision: 0
# Processed by: cddbd v1.4PL0 Copyright (c) Steve Scherf et al.
# Submitted via: CDex 1.50beta10
#
DISCID=a00c300c
DTITLE=Catfish and The Crawdaddies - Venus Blues
DYEAR=2003
DGENRE=Blues
TTITLE0=Sail On Down
TTITLE1=Crawdaddy Crawdaddy
TTITLE2=How Long Has That Train Been Gone
TTITLE3=Venus Blues
TTITLE4=Stockbroker Blues
TTITLE5=Lonely Lonely Night
TTITLE6=Sea Ranch Break
TTITLE7=Love Or Lust
TTITLE8=Bad Side Of The Blues
TTITLE9=CFish
TTITLE10=Party Town
TTITLE11=Huevos Boleros
EXTD=YEAR: 2003
EXTT0=
EXTT1=
EXTT2=
EXTT3=
EXTT4=
EXTT5=
EXTT6=
EXTT7=
EXTT8=
EXTT9=
EXTT10=
EXTT11=
PLAYORDER=
